<svg width="512" height="512" viewBox="0 0 512 512" fill="none" xmlns="http://www.w3.org/2000/svg">
<rect width="512" height="512" rx="256" fill="white"/>
<path d="M332.001 164C346.477 164 358.664 167.292 368.563 173.874C378.585 180.457 386.132 189.71 391.205 201.633C396.401 213.557 399 227.53 399 243.552V349H359.097V243.552C359.097 229.145 355.633 218.277 348.704 210.949C341.775 203.497 332.681 199.77 321.422 199.77C307.44 199.77 296.552 205.36 288.758 216.538C280.963 227.592 277.065 243.986 277.065 265.722V349H237.348V243.552C237.348 229.145 233.883 218.277 226.954 210.949C220.149 203.497 211.056 199.77 199.673 199.77C190.393 199.77 182.226 202.317 175.174 207.409C168.121 212.501 162.616 220.078 158.656 230.138C154.697 240.198 152.717 252.557 152.717 267.213V349H113V169.03H147.706L151.975 201.261C157.79 188.965 165.647 179.712 175.545 173.502C185.443 167.167 196.889 164 209.88 164C224.48 164 236.729 167.292 246.627 173.874C256.649 180.457 264.197 189.71 269.27 201.633C269.642 202.485 269.997 203.349 270.342 204.221C273.037 197.915 276.205 192.394 279.849 187.661C286.283 179.463 293.892 173.502 302.677 169.776C311.462 165.925 321.237 164 332.001 164Z" fill="#6D6B67"/>
</svg>
