<svg width="16" height="16" viewBox="0 0 16 16" fill="none" xmlns="http://www.w3.org/2000/svg">
<path fill-rule="evenodd" clip-rule="evenodd" d="M4.29297 4.29305C4.68349 3.90252 5.31651 3.90252 5.70703 4.29305C6.09748 4.68358 6.09753 5.31661 5.70703 5.70711L3.41406 8.00008L5.70703 10.293C6.09748 10.6836 6.09753 11.3166 5.70703 11.7071C5.31652 12.0975 4.68347 12.0975 4.29297 11.7071L0.585938 8.00008L4.29297 4.29305ZM10.293 4.29305C10.6835 3.90252 11.3165 3.90252 11.707 4.29305L15.4141 8.00008L11.707 11.7071C11.3165 12.0975 10.6835 12.0975 10.293 11.7071C9.90247 11.3166 9.90252 10.6836 10.293 10.293L12.5859 8.00008L10.293 5.70711C9.90247 5.31661 9.90252 4.68358 10.293 4.29305Z" fill="#1D1D1B"/>
</svg>
