<svg width="24" height="24" viewBox="0 0 24 24" fill="none" xmlns="http://www.w3.org/2000/svg">
<path d="M17.9396 3.93958C18.5254 3.35381 19.4749 3.3538 20.0607 3.93958C20.6463 4.52538 20.6464 5.47493 20.0607 6.06068L14.1212 12.0001L20.0607 17.9396C20.6463 18.5254 20.6464 19.4749 20.0607 20.0607C19.4749 20.6464 18.5254 20.6463 17.9396 20.0607L12.0001 14.1212L6.06068 20.0607C5.47493 20.6464 4.52538 20.6464 3.93958 20.0607C3.3538 19.4749 3.3538 18.5254 3.93958 17.9396L9.87904 12.0001L3.93958 6.06068C3.3538 5.47489 3.3538 4.52537 3.93958 3.93958C4.52537 3.3538 5.47489 3.3538 6.06068 3.93958L12.0001 9.87904L17.9396 3.93958Z" fill="#1D1D1B"/>
</svg>
