<svg width="24" height="24" viewBox="0 0 24 24" fill="none" xmlns="http://www.w3.org/2000/svg">
<path d="M7.68079 18C6.66198 18 5.6477 17.7347 4.73357 17.1998C3.05526 16.2184 2.0319 14.4987 2 12.5977V12.5005V12.4032C2.03639 10.5066 3.05975 8.78253 4.73357 7.80108C6.4255 6.80638 8.49049 6.73565 10.2552 7.60214C10.9283 7.93371 11.1921 8.72946 10.851 9.38814C10.5099 10.0424 9.69121 10.2988 9.01354 9.96728C8.09933 9.51635 7.0169 9.55171 6.13897 10.0734C5.25661 10.5862 4.73813 11.4527 4.72451 12.4518V12.5049V12.5579C4.7427 13.5526 5.26121 14.4147 6.13897 14.9364C7.02133 15.4581 8.09928 15.4934 9.01354 15.0425C9.68668 14.7109 10.51 14.9718 10.851 15.6217C11.1921 16.2759 10.9238 17.0762 10.2552 17.4077C9.4456 17.7967 8.56314 18 7.68079 18Z" fill="#1D1D1B"/>
<path d="M17.0001 18C16.4209 18 15.903 17.673 15.6864 17.1691L12.1032 8.82046C11.8112 8.13984 12.1597 7.36635 12.8848 7.09685C13.6099 6.82283 14.434 7.14988 14.7211 7.83051L17 13.1296L19.2789 7.83051C19.5708 7.14989 20.3901 6.82284 21.1152 7.09685C21.8403 7.37087 22.1887 8.13988 21.8968 8.82046L18.3136 17.1691C18.097 17.6685 17.5792 18 17.0001 18Z" fill="#1D1D1B"/>
</svg>
