<svg width="24" height="24" viewBox="0 0 24 24" fill="none" xmlns="http://www.w3.org/2000/svg">
<path fill-rule="evenodd" clip-rule="evenodd" d="M12 1.5C17.5987 1.5 22.1721 5.88199 22.4814 11.4033C22.4922 11.4758 22.5 11.5496 22.5 11.625V12.627C22.4999 13.9505 21.8978 15.2024 20.8643 16.0293L20.7695 16.1055C19.5005 17.1207 17.7563 17.3059 16.3027 16.5791C15.9015 16.3785 15.544 16.1166 15.2354 15.8105C14.3632 16.5518 13.2343 17 12 17C9.23858 17 7 14.7614 7 12C7 9.23858 9.23858 7 12 7C12.9745 7 13.8835 7.27953 14.6523 7.76172C14.8934 7.59636 15.1856 7.5 15.5 7.5C16.3284 7.5 17 8.17157 17 9V12.8516C17 13.2933 17.2494 13.6979 17.6445 13.8955C18.0515 14.099 18.5402 14.0469 18.8955 13.7627L18.9902 13.6865C19.3122 13.429 19.4999 13.0392 19.5 12.627V12C19.5 7.85786 16.1421 4.5 12 4.5C7.85786 4.5 4.5 7.85786 4.5 12C4.5 16.1421 7.85786 19.5 12 19.5C12.9262 19.5 13.81 19.3329 14.625 19.0283C15.4009 18.7384 16.2646 19.1323 16.5547 19.9082C16.8447 20.6842 16.4508 21.5489 15.6748 21.8389C14.5291 22.2669 13.29 22.5 12 22.5C6.20101 22.5 1.5 17.799 1.5 12C1.5 6.20101 6.20101 1.5 12 1.5ZM12 10C10.8954 10 10 10.8954 10 12C10 13.1046 10.8954 14 12 14C13.1046 14 14 13.1046 14 12C14 10.8954 13.1046 10 12 10Z" fill="#242422"/>
</svg>
