<svg width="24" height="24" viewBox="0 0 24 24" fill="none" xmlns="http://www.w3.org/2000/svg">
<path d="M10.457 16.4552C7.8789 16.1361 6.06249 14.242 6.06249 11.7896C6.06249 10.7927 6.41406 9.71606 7 8.99829C6.7461 8.34033 6.78516 6.94467 7.07812 6.36646C7.85937 6.26677 8.91406 6.68546 9.53906 7.26367C10.2812 7.02442 11.0625 6.90479 12.0195 6.90479C12.9766 6.90479 13.7578 7.02442 14.4609 7.24373C15.0664 6.68546 16.1406 6.26677 16.9219 6.36646C17.1953 6.90479 17.2344 8.30046 16.9805 8.97835C17.6055 9.736 17.9375 10.7529 17.9375 11.7896C17.9375 14.242 16.1211 16.0963 13.5039 16.4352C14.168 16.8739 14.6172 17.8309 14.6172 18.9275V21.0011C14.6172 21.5992 15.1055 21.9381 15.6914 21.6989C19.2266 20.3232 22 16.7144 22 12.2482C22 6.60571 17.5078 2 11.9805 2C6.45312 2 2 6.60571 2 12.2482C2 16.6745 4.7539 20.3431 8.46484 21.7188C8.99218 21.9182 9.5 21.5593 9.5 21.021V19.4259C9.22657 19.5456 8.875 19.6253 8.56249 19.6253C7.27343 19.6253 6.51171 18.9076 5.96484 17.5717C5.75 17.0334 5.51563 16.7144 5.06641 16.6545C4.83204 16.6346 4.7539 16.5349 4.7539 16.4153C4.7539 16.176 5.14453 15.9966 5.53516 15.9966C6.10157 15.9966 6.58984 16.3555 7.09765 17.0932C7.48829 17.6714 7.89843 17.9306 8.38671 17.9306C8.875 17.9306 9.18749 17.7511 9.63671 17.2926C9.96876 16.9536 10.2227 16.6545 10.457 16.4552Z" fill="#1D1D1B"/>
</svg>
