<svg width="24" height="24" viewBox="0 0 24 24" fill="none" xmlns="http://www.w3.org/2000/svg">
<path d="M16.1001 18H18.9988L19 12.87C19 10.3516 18.4583 8.41582 15.5204 8.41582C14.9691 8.39532 14.4227 8.52498 13.9392 8.79098C13.4557 9.05699 13.0533 9.44938 12.7748 9.92637H12.7358V8.64842H9.95311V17.9997H12.8518V13.3737C12.8518 12.1538 13.0828 10.9723 14.5925 10.9723C16.0808 10.9723 16.1001 12.3682 16.1001 13.4526V18Z" fill="#1D1D1B"/>
<path d="M5.74784 7.08634C6.0245 7.27145 6.34975 7.37022 6.68244 7.37016C6.90334 7.37012 7.12207 7.3265 7.32614 7.24178C7.53021 7.15706 7.71563 7.0329 7.8718 6.8764C8.02798 6.7199 8.15185 6.53411 8.23635 6.32966C8.32085 6.1252 8.36431 5.90607 8.36427 5.68478C8.36421 5.3515 8.2655 5.02573 8.08062 4.74865C7.89573 4.47157 7.63298 4.25564 7.32559 4.12815C7.01819 4.00067 6.67996 3.96736 6.35367 4.03244C6.02738 4.09752 5.72768 4.25806 5.49247 4.49376C5.25726 4.72947 5.09711 5.02975 5.03226 5.35664C4.96742 5.68352 5.00079 6.02233 5.12816 6.33021C5.25553 6.6381 5.47118 6.90124 5.74784 7.08634Z" fill="#1D1D1B"/>
<path d="M5.23008 18H8.13177V8.64842H5.23008V18Z" fill="#1D1D1B"/>
</svg>
