<svg width="24" height="24" viewBox="0 0 24 24" fill="none" xmlns="http://www.w3.org/2000/svg">
<path d="M13 9C13.5523 9 14 9.44771 14 10C14 10.5523 13.5523 11 13 11H7C6.44772 11 6 10.5523 6 10C6 9.44771 6.44772 9 7 9H13Z" fill="#1D1D1B"/>
<path fill-rule="evenodd" clip-rule="evenodd" d="M10 1C14.9706 1 19 5.02944 19 10C19 12.1998 18.2092 14.2139 16.8984 15.7773L22.0605 20.9395C22.6463 21.5252 22.6463 22.4748 22.0605 23.0605C21.4748 23.6463 20.5252 23.6463 19.9395 23.0605L14.6084 17.7295C13.2602 18.5351 11.6847 19 10 19C5.02944 19 1 14.9706 1 10C1 5.02944 5.02944 1 10 1ZM10 4C6.68629 4 4 6.68629 4 10C4 13.3137 6.68629 16 10 16C13.3137 16 16 13.3137 16 10C16 6.68629 13.3137 4 10 4Z" fill="#1D1D1B"/>
</svg>
