<svg width="24" height="24" viewBox="0 0 24 24" fill="none" xmlns="http://www.w3.org/2000/svg">
<path d="M15.9395 6.93946C16.5252 6.35368 17.4748 6.35368 18.0606 6.93946L23.1211 12L18.0606 17.0606C17.4748 17.6463 16.5252 17.6463 15.9395 17.0606C15.3537 16.4748 15.3537 15.5252 15.9395 14.9395L18.8789 12L15.9395 9.06056C15.3537 8.47477 15.3537 7.52525 15.9395 6.93946Z" fill="#1D1D1B"/>
<path d="M8.06054 6.93946C7.47475 6.35368 6.52523 6.35368 5.93944 6.93946L0.878898 12L5.93944 17.0606C6.52523 17.6463 7.47475 17.6463 8.06054 17.0606C8.64632 16.4748 8.64632 15.5252 8.06054 14.9395L5.12108 12L8.06054 9.06056C8.64632 8.47477 8.64632 7.52525 8.06054 6.93946Z" fill="#1D1D1B"/>
</svg>
